# xmcd CD database file
#
# Track frame offsets:
#	150
#	14373
#	29733
#	41860
#	56050
#	68972
#	81626
#	94555
#	105632
#	120370
#	133743
#	147790
#	160295
#	174284
#	187467
#	200047
#	215668
#	230297
#	243581
#	259183
#	274325
#	287161
#	302275
#	312789
#
# Disc length: 4351 seconds
#
# Revision: 2
# Processed by: cddbd v1.5.2PL0 Copyright (c) Steve Scherf et al.
# Submitted via: CDex 1.77
#
DISCID=6f10fd18
DTITLE=Django Reinhardt - At Hist Best - Sweet and Lowdown
DYEAR=2000
DGENRE=Jazz
TTITLE0=I'se A Muggin'
TTITLE1=I Can't Give You Anything But Love
TTITLE2=Oriental Shuffle
TTITLE3=After You've Gone
TTITLE4=Are You In The Mood
TTITLE5=Limehouse Blues
TTITLE6=Nagasaki
TTITLE7=Swing Guitars
TTITLE8=Georgia On My Mind
TTITLE9=Shine
TTITLE10=In The Still Of The Night
TTITLE11=Sweet Chorus
TTITLE12=Hot Lips
TTITLE13=Ain't Misbehavin'
TTITLE14=Rose Room
TTITLE15=Body And Soul
TTITLE16=When Day Is Done
TTITLE17=Runnin' Wild
TTITLE18=Chicago
TTITLE19=Liebestraum No.3
TTITLE20=Miss Annabelle Lee
TTITLE21=A Little Love A Little Kiss
TTITLE22=Mystery Pacific
TTITLE23=In A Sentimental Mood
EXTD=Definitive Records YEAR: 2000
EXTT0=
EXTT1=
EXTT2=
EXTT3=
EXTT4=
EXTT5=
EXTT6=
EXTT7=
EXTT8=
EXTT9=
EXTT10=
EXTT11=
EXTT12=
EXTT13=
EXTT14=
EXTT15=
EXTT16=
EXTT17=
EXTT18=
EXTT19=
EXTT20=
EXTT21=
EXTT22=
EXTT23=
PLAYORDER=
